# xmcd CD database file
#
# Track frame offsets:
#	150
#	19828
#	37725
#	53857
#	73629
#	91912
#	109203
#	129267
#	146308
#	162463
#	179604
#	195704
#	214469
#	234574
#
# Disc length: 3572 seconds
#
# Revision: 4
# Processed by: cddbd v1.5PL3 Copyright (c) Steve Scherf et al.
# Submitted via: CDex 1.51
#
DISCID=c50df20e
DTITLE=Folder5 - Hyper Groove 1
DYEAR=2001
DGENRE=Dance
TTITLE0=GEMINI
TTITLE1=AMAZING LOVE
TTITLE2=Final Fun-Boy
TTITLE3=Follow me
TTITLE4=Ready!
TTITLE5=Believe
TTITLE6=HEART BEAT
TTITLE7=IT'S UP TO YOU
TTITLE8=STAY...
TTITLE9=Liar
TTITLE10=BE MY LOVE
TTITLE11=SUPERGIRL
TTITLE12=Break the silence
TTITLE13=F5 HYPER GROOVE NON-STOP SPECIAL
EXTD=YEAR: 2001
EXTT0=
EXTT1=
EXTT2=
EXTT3=
EXTT4=
EXTT5=
EXTT6=
EXTT7=
EXTT8=
EXTT9=
EXTT10=
EXTT11=
EXTT12=
EXTT13=
PLAYORDER=
